<svg width="106" height="130" viewBox="0 0 106 130" fill="none" xmlns="http://www.w3.org/2000/svg">
<path d="M55.5007 27.1526C61.2205 14.1223 69.879 9.30122 76.6431 12.2764C83.4072 15.2517 85.7144 24.8695 79.9947 37.912C74.275 50.9422 62.6777 62.4545 55.9136 59.4793C49.1495 56.5041 49.781 40.195 55.5007 27.1526Z" fill="#5E6BE1"/>
<path d="M53.6927 84.1693C53.292 74.6728 54.9678 64.6056 58.7931 53.3969C62.1812 43.4998 66.8202 33.9426 71.3255 24.7012L71.6534 24.859C67.1602 34.0883 62.5213 43.6333 59.1453 53.5062C55.3321 64.6785 53.6684 74.6971 54.057 84.145L53.6927 84.1693Z" fill="#353D69"/>
<path d="M83.8469 41.4683C93.8898 34.5099 101.905 34.182 104.904 38.5295C107.916 42.8769 104.783 50.2482 94.7277 57.2066C84.6848 64.165 71.521 68.0631 68.5093 63.7157C65.5098 59.3682 73.7919 48.4266 83.8469 41.4683Z" fill="#5E6BE1"/>
<path d="M57.8954 78.0953L57.5918 77.8767C68.9584 61.9805 79.4506 52.6905 97.6784 42.3926L97.8606 42.7083C79.6935 52.9941 69.2377 62.2477 57.8954 78.0953Z" fill="#353D69"/>
<path d="M28.1071 28.2426C22.4481 12.9414 24.2211 2.65566 30.2687 0.421205C36.3163 -1.81325 44.3434 4.85368 50.0024 20.1549C55.6614 35.456 56.7907 53.5988 50.7431 55.8333C44.6955 58.0677 33.7661 43.5438 28.1071 28.2426Z" fill="#5E6BE1"/>
<path d="M56.7164 86.2772C53.5833 60.3745 47.1714 43.6404 41.5003 28.8735C39.7637 24.3318 38.1121 20.045 36.582 15.5882L36.9342 15.4668C38.4643 19.9236 40.1159 24.2103 41.8524 28.74C47.5236 43.5311 53.9476 60.2773 57.0807 86.2286L56.7164 86.2772Z" fill="#353D69"/>
<path d="M11.215 54.3862C0.54057 46.2984 -2.21608 37.6521 1.68208 32.5152C5.58023 27.3784 14.6395 27.6942 25.3139 35.7819C35.9883 43.8697 44.2218 56.6571 40.3236 61.7939C36.4254 66.9307 21.8893 62.4739 11.215 54.3862Z" fill="#5E6BE1"/>
<path d="M52.7964 79.8164C48.4732 69.2634 33.852 54.6909 13.6934 40.8348L13.8998 40.5312C34.1192 54.4359 48.7768 69.0691 53.1364 79.6828L52.7964 79.8164Z" fill="#353D69"/>
<path d="M25.5312 80.75L32.684 129.483H75.8308L82.352 80.75H25.5312Z" fill="#0B0A4B"/>
<path d="M81.2591 88.8863L82.352 80.75H25.5312L32.684 129.483H42.1804" fill="#353D69"/>
<path d="M81.2957 84.502H26.5879C23.552 84.502 21.0625 82.0126 21.0625 78.9766C21.0625 75.9407 23.552 73.4512 26.5879 73.4512H81.2957C84.3316 73.4512 86.8211 75.9407 86.8211 78.9766C86.8211 82.0126 84.3316 84.502 81.2957 84.502Z" fill="#0B0A4B"/>
<path d="M35.5419 98.4565C31.2308 107.868 24.6974 111.183 19.5849 108.839C14.4724 106.496 12.7115 99.3916 17.0226 89.9802C21.3336 80.5687 30.0771 72.4202 35.1897 74.764C40.3022 77.1077 39.8529 89.0572 35.5419 98.4565Z" fill="#5E6BE1"/>
<path d="M25.6568 95.2618L25.3047 95.1525L25.4747 94.6304C27.8792 87.1377 32.8945 71.545 39.1486 70.4885C41.043 70.1606 42.9131 71.205 44.7104 73.5731L44.419 73.7916C42.7189 71.545 40.9701 70.5493 39.2093 70.8529C33.1738 71.8729 28.207 87.332 25.8269 94.7518L25.6568 95.2618Z" fill="#353D69"/>
<path d="M93.636 90.2208C96.3926 97.5556 94.6803 102.838 90.6972 104.332C86.714 105.826 81.9536 102.972 79.197 95.6369C76.4403 88.302 76.7318 79.255 80.715 77.7613C84.6981 76.2676 90.8915 82.8859 93.636 90.2208Z" fill="#5E6BE1"/>
<path d="M87.1131 93.1989C81.3448 78.2256 76.1715 69.98 72.5527 69.98H72.5406C71.1319 69.9921 69.9539 71.2551 69.0431 73.7324L68.7031 73.5988C69.6868 70.9636 70.974 69.6157 72.5527 69.6035H72.5648C76.4023 69.6035 81.5512 77.7156 87.4652 93.0532L87.1131 93.1989Z" fill="#353D69"/>
</svg>
