<svg width="18" height="27" viewBox="0 0 18 27" fill="none" xmlns="http://www.w3.org/2000/svg">
<path d="M17.1484 21.2344L16.0031 21.5923L16.1124 21.9423L16.3988 22.1714L17.1484 21.2344ZM17.1484 18.3047L16.3988 17.3676L16.1221 17.589L16.01 17.9252L17.1484 18.3047ZM14.8828 21V22.2H16.2323L16.0746 20.8598L14.8828 21ZM14.8828 18.5L16.0755 18.6325L16.2235 17.3H14.8828V18.5ZM18.7 17.5625V4.4375H16.3V17.5625H18.7ZM18.7 4.4375C18.7 3.26695 17.7331 2.3 16.5625 2.3V4.7C16.4729 4.7 16.4088 4.66251 16.3732 4.62685C16.3375 4.59119 16.3 4.52707 16.3 4.4375H18.7ZM16.5625 2.3H3.75V4.7H16.5625V2.3ZM3.75 2.3C1.01695 2.3 -1.2 4.51695 -1.2 7.25H1.2C1.2 5.84243 2.34243 4.7 3.75 4.7V2.3ZM-1.2 7.25V19.75H1.2V7.25H-1.2ZM-1.2 19.75C-1.2 22.4831 1.01695 24.7 3.75 24.7V22.3C2.34243 22.3 1.2 21.1576 1.2 19.75H-1.2ZM3.75 24.7H16.5625V22.3H3.75V24.7ZM16.5625 24.7C17.7 24.7 18.7 23.8047 18.7 22.5625H16.3C16.3 22.5087 16.3259 22.4335 16.3855 22.3756C16.4401 22.3226 16.5062 22.3 16.5625 22.3V24.7ZM18.7 22.5625V21.9375H16.3V22.5625H18.7ZM18.7 21.9375C18.7 21.2455 18.333 20.6452 17.8981 20.2973L16.3988 22.1714C16.3584 22.1391 16.3419 22.1132 16.3328 22.0956C16.3234 22.0775 16.3 22.0255 16.3 21.9375H18.7ZM18.2938 20.8764C18.2548 20.7515 18.202 20.3243 18.202 19.7549C18.202 19.4951 18.213 19.245 18.233 19.0369C18.243 18.9331 18.2546 18.8473 18.2663 18.7807C18.2787 18.7098 18.2877 18.6815 18.2869 18.6842L16.01 17.9252C15.845 18.4202 15.802 19.1707 15.802 19.7549C15.802 20.3475 15.8468 21.0922 16.0031 21.5923L18.2938 20.8764ZM17.8981 19.2417C18.356 18.8754 18.7 18.2668 18.7 17.5625H16.3C16.3 17.5177 16.3112 17.4815 16.3241 17.4555C16.3356 17.4326 16.3562 17.4017 16.3988 17.3676L17.8981 19.2417ZM6.2 8.73438C6.2 8.93147 6.13565 9.16779 5.95548 9.37048C5.75568 9.59525 5.48188 9.7 5.23438 9.7V7.3C4.83062 7.3 4.43963 7.46334 4.1617 7.77601C3.90341 8.06659 3.8 8.4201 3.8 8.73438H6.2ZM5.23438 9.7H13.5156V7.3H5.23438V9.7ZM13.5156 9.7C13.1839 9.7 12.9527 9.54624 12.8282 9.42177C12.7038 9.2973 12.55 9.06606 12.55 8.73438H14.95C14.95 8.2855 14.7376 7.93707 14.5253 7.72471C14.3129 7.51235 13.9645 7.3 13.5156 7.3V9.7ZM12.55 8.73438V9.51562H14.95V8.73438H12.55ZM12.55 9.51562C12.55 9.26812 12.6547 8.99432 12.8795 8.79451C13.0822 8.61435 13.3185 8.55 13.5156 8.55V10.95C13.8299 10.95 14.1834 10.8466 14.474 10.5883C14.7867 10.3104 14.95 9.91938 14.95 9.51562H12.55ZM13.5156 8.55H5.23438V10.95H13.5156V8.55ZM5.23438 8.55C5.34122 8.55 5.64177 8.57753 5.90712 8.84288C6.17248 9.10823 6.2 9.40878 6.2 9.51562H3.8C3.8 9.77872 3.86659 10.1965 4.21007 10.5399C4.55354 10.8834 4.97128 10.95 5.23438 10.95V8.55ZM6.2 9.51562V8.73438H3.8V9.51562H6.2ZM6.2 11.2344C6.2 11.4315 6.13565 11.6678 5.95548 11.8705C5.75568 12.0953 5.48188 12.2 5.23438 12.2V9.8C4.83062 9.8 4.43963 9.96334 4.1617 10.276C3.90341 10.5666 3.8 10.9201 3.8 11.2344H6.2ZM5.23438 12.2H13.5156V9.8H5.23438V12.2ZM13.5156 12.2C13.1839 12.2 12.9527 12.0462 12.8282 11.9218C12.7038 11.7973 12.55 11.5661 12.55 11.2344H14.95C14.95 10.7855 14.7376 10.4371 14.5253 10.2247C14.3129 10.0124 13.9645 9.8 13.5156 9.8V12.2ZM12.55 11.2344V12.0156H14.95V11.2344H12.55ZM12.55 12.0156C12.55 11.7681 12.6547 11.4943 12.8795 11.2945C13.0822 11.1143 13.3185 11.05 13.5156 11.05V13.45C13.8299 13.45 14.1834 13.3466 14.474 13.0883C14.7867 12.8104 14.95 12.4194 14.95 12.0156H12.55ZM13.5156 11.05H5.23438V13.45H13.5156V11.05ZM5.23438 11.05C5.34122 11.05 5.64177 11.0775 5.90712 11.3429C6.17248 11.6082 6.2 11.9088 6.2 12.0156H3.8C3.8 12.2787 3.86659 12.6965 4.21007 13.0399C4.55354 13.3834 4.97128 13.45 5.23438 13.45V11.05ZM6.2 12.0156V11.2344H3.8V12.0156H6.2ZM14.8828 19.8H3.75V22.2H14.8828V19.8ZM3.75 19.8C3.73103 19.8 3.72127 19.7966 3.71767 19.7951C3.71351 19.7933 3.71125 19.7915 3.70986 19.7901C3.70846 19.7887 3.70665 19.7865 3.70493 19.7823C3.70343 19.7787 3.7 19.769 3.7 19.75H1.3C1.3 21.1159 2.38413 22.2 3.75 22.2V19.8ZM3.7 19.75C3.7 19.7494 3.70005 19.7458 3.70291 19.739C3.70602 19.7316 3.71144 19.723 3.71893 19.7153C3.72623 19.7079 3.73278 19.704 3.73669 19.7023C3.73944 19.7011 3.74281 19.7 3.75 19.7V17.3C2.35993 17.3 1.3 18.4477 1.3 19.75H3.7ZM3.75 19.7H14.8828V17.3H3.75V19.7ZM13.6902 18.3675C13.6025 19.156 13.6017 20.3805 13.691 21.1402L16.0746 20.8598C16.0077 20.2914 16.0068 19.2502 16.0755 18.6325L13.6902 18.3675Z" fill="#6678E5"/>
</svg>
