<svg width="37" height="35" viewBox="0 0 37 35" fill="none" xmlns="http://www.w3.org/2000/svg">
<path d="M18.4915 0L0 15.244L1.86368 17L18.4915 3.21938L35.2133 16.8578L37 15.2523L18.4915 0Z" fill="white"/>
<path d="M29.675 14.7363V29.0153C29.675 31.9917 28.9143 32.6732 25.5915 32.6732H23.1431L14.0841 32.6262H11.2948C7.97197 32.6262 7.21123 31.9447 7.21123 28.9683V14.752L4.60547 17.3916V28.9683C4.60547 33.1118 6.44174 34.8663 10.9188 34.9525V34.9995H11.2948H15.9467L21.3331 34.9525H25.5478C30.2958 34.9525 32.237 33.2136 32.237 28.9605V17.3994L29.675 14.7363Z" fill="white"/>
</svg>
