<svg width="42" height="54" viewBox="0 0 42 54" fill="none" xmlns="http://www.w3.org/2000/svg">
<g filter="url(#filter0_d_6_4)">
<path d="M19.2031 46.8516C20.0117 48.1094 21.8984 48.1094 22.707 46.8516C35.8242 27.9844 38.25 26.0078 38.25 19C38.25 9.47656 30.5234 1.75 21 1.75C11.3867 1.75 3.75 9.47656 3.75 19C3.75 26.0078 6.08594 27.9844 19.2031 46.8516Z" fill="#FB8700"/>
<path d="M19.2031 46.8516L20.8855 45.77L20.8659 45.7396L20.8453 45.7099L19.2031 46.8516ZM22.707 46.8516L21.0649 45.7099L21.0442 45.7396L21.0247 45.77L22.707 46.8516ZM17.5208 47.9331C19.1166 50.4155 22.7935 50.4155 24.3894 47.9331L21.0247 45.77C21.0198 45.7776 21.0171 45.7799 21.0169 45.7801C21.0164 45.7805 21.015 45.7817 21.0115 45.7836C21.0031 45.7879 20.9834 45.7949 20.9551 45.7949C20.9267 45.7949 20.9071 45.7879 20.8987 45.7836C20.8951 45.7817 20.8937 45.7805 20.8932 45.7801C20.8931 45.7799 20.8903 45.7776 20.8855 45.77L17.5208 47.9331ZM24.3492 47.9932C30.8418 38.6545 34.8201 33.3128 37.1106 29.5105C38.2811 27.5675 39.0856 25.9112 39.5843 24.221C40.0872 22.5163 40.25 20.8757 40.25 19H36.25C36.25 20.6282 36.1096 21.8626 35.7478 23.0891C35.3817 24.33 34.7599 25.661 33.6843 27.4465C31.4826 31.1013 27.6894 36.1815 21.0649 45.7099L24.3492 47.9932ZM40.25 19C40.25 8.37199 31.628 -0.25 21 -0.25V3.75C29.4189 3.75 36.25 10.5811 36.25 19H40.25ZM21 -0.25C10.2754 -0.25 1.75 8.37879 1.75 19H5.75C5.75 10.5743 12.4981 3.75 21 3.75V-0.25ZM1.75 19C1.75 20.8705 1.90619 22.5081 2.39871 24.2108C2.88757 25.9007 3.67967 27.5575 4.8399 29.5029C7.111 33.311 11.0655 38.6504 17.561 47.9932L20.8453 45.7099C14.2236 36.1855 10.4515 31.103 8.27534 27.4541C7.21193 25.671 6.60023 24.3405 6.24118 23.0993C5.88581 21.8708 5.75 20.6335 5.75 19H1.75Z" fill="#FFF51D"/>
</g>
<defs>
<filter id="filter0_d_6_4" x="0.75" y="0.75" width="40.5" height="52.3594" filterUnits="userSpaceOnUse" color-interpolation-filters="sRGB">
<feFlood flood-opacity="0" result="BackgroundImageFix"/>
<feColorMatrix in="SourceAlpha" type="matrix" values="0 0 0 0 0 0 0 0 0 0 0 0 0 0 0 0 0 0 127 0" result="hardAlpha"/>
<feOffset dy="2"/>
<feGaussianBlur stdDeviation="1.5"/>
<feComposite in2="hardAlpha" operator="out"/>
<feColorMatrix type="matrix" values="0 0 0 0 0 0 0 0 0 0 0 0 0 0 0 0 0 0 0.25 0"/>
<feBlend mode="normal" in2="BackgroundImageFix" result="effect1_dropShadow_6_4"/>
<feBlend mode="normal" in="SourceGraphic" in2="effect1_dropShadow_6_4" result="shape"/>
</filter>
</defs>
</svg>
